<mxfile host="app.diagrams.net" modified="2023-06-14T12:46:42.444Z" agent="Mozilla/5.0 (Macintosh; Intel Mac OS X 10_15_7) AppleWebKit/537.36 (KHTML, like Gecko) Chrome/114.0.0.0 Safari/537.36" etag="groyQlkuCuytkLbm3yNS" version="21.3.8" type="device">
  <diagram name="Page-1" id="a5aQ1EnHg3ZTOY7L_atY">
    <mxGraphModel dx="2074" dy="2231" grid="1" gridSize="10" guides="1" tooltips="1" connect="1" arrows="1" fold="1" page="1" pageScale="1" pageWidth="827" pageHeight="1169" math="0" shadow="0">
      <root>
        <mxCell id="0" />
        <mxCell id="1" parent="0" />
        <mxCell id="TkcpjnZqFe34bucZmvmq-33" style="edgeStyle=orthogonalEdgeStyle;rounded=0;orthogonalLoop=1;jettySize=auto;html=1;entryX=0;entryY=0.5;entryDx=0;entryDy=0;entryPerimeter=0;" parent="1" source="TkcpjnZqFe34bucZmvmq-10" target="TkcpjnZqFe34bucZmvmq-22" edge="1">
          <mxGeometry relative="1" as="geometry">
            <Array as="points">
              <mxPoint x="439" y="770" />
              <mxPoint x="439" y="559" />
            </Array>
          </mxGeometry>
        </mxCell>
        <mxCell id="TkcpjnZqFe34bucZmvmq-38" value="3 - POST /budgets" style="edgeLabel;html=1;align=center;verticalAlign=middle;resizable=0;points=[];" parent="TkcpjnZqFe34bucZmvmq-33" vertex="1" connectable="0">
          <mxGeometry x="0.2064" y="3" relative="1" as="geometry">
            <mxPoint x="14" y="4" as="offset" />
          </mxGeometry>
        </mxCell>
        <mxCell id="TkcpjnZqFe34bucZmvmq-34" style="edgeStyle=orthogonalEdgeStyle;rounded=0;orthogonalLoop=1;jettySize=auto;html=1;entryX=0;entryY=0.5;entryDx=0;entryDy=0;entryPerimeter=0;" parent="1" source="TkcpjnZqFe34bucZmvmq-10" target="TkcpjnZqFe34bucZmvmq-25" edge="1">
          <mxGeometry relative="1" as="geometry">
            <Array as="points">
              <mxPoint x="480" y="790" />
              <mxPoint x="480" y="721" />
            </Array>
          </mxGeometry>
        </mxCell>
        <mxCell id="TkcpjnZqFe34bucZmvmq-39" value="GET /budgets/{id}" style="edgeLabel;html=1;align=center;verticalAlign=middle;resizable=0;points=[];" parent="TkcpjnZqFe34bucZmvmq-34" vertex="1" connectable="0">
          <mxGeometry x="-0.1342" relative="1" as="geometry">
            <mxPoint x="-38" as="offset" />
          </mxGeometry>
        </mxCell>
        <mxCell id="TkcpjnZqFe34bucZmvmq-35" style="edgeStyle=orthogonalEdgeStyle;rounded=0;orthogonalLoop=1;jettySize=auto;html=1;entryX=0;entryY=0.5;entryDx=0;entryDy=0;entryPerimeter=0;" parent="1" source="TkcpjnZqFe34bucZmvmq-10" target="TkcpjnZqFe34bucZmvmq-27" edge="1">
          <mxGeometry relative="1" as="geometry">
            <Array as="points">
              <mxPoint x="439" y="830" />
              <mxPoint x="439" y="1039" />
            </Array>
          </mxGeometry>
        </mxCell>
        <mxCell id="TkcpjnZqFe34bucZmvmq-42" value="DELETE /budgets/{id}" style="edgeLabel;html=1;align=center;verticalAlign=middle;resizable=0;points=[];" parent="TkcpjnZqFe34bucZmvmq-35" vertex="1" connectable="0">
          <mxGeometry x="-0.7844" y="-1" relative="1" as="geometry">
            <mxPoint x="42" y="119" as="offset" />
          </mxGeometry>
        </mxCell>
        <mxCell id="TkcpjnZqFe34bucZmvmq-36" style="edgeStyle=orthogonalEdgeStyle;rounded=0;orthogonalLoop=1;jettySize=auto;html=1;entryX=0;entryY=0.5;entryDx=0;entryDy=0;entryPerimeter=0;" parent="1" source="TkcpjnZqFe34bucZmvmq-10" target="TkcpjnZqFe34bucZmvmq-26" edge="1">
          <mxGeometry relative="1" as="geometry">
            <Array as="points">
              <mxPoint x="480" y="810" />
              <mxPoint x="480" y="877" />
            </Array>
          </mxGeometry>
        </mxCell>
        <mxCell id="TkcpjnZqFe34bucZmvmq-41" value="GET /budgets" style="edgeLabel;html=1;align=center;verticalAlign=middle;resizable=0;points=[];" parent="TkcpjnZqFe34bucZmvmq-36" vertex="1" connectable="0">
          <mxGeometry x="-0.6332" relative="1" as="geometry">
            <mxPoint x="20" as="offset" />
          </mxGeometry>
        </mxCell>
        <mxCell id="TkcpjnZqFe34bucZmvmq-10" value="budgets-api" style="sketch=0;points=[[0,0,0],[0.25,0,0],[0.5,0,0],[0.75,0,0],[1,0,0],[0,1,0],[0.25,1,0],[0.5,1,0],[0.75,1,0],[1,1,0],[0,0.25,0],[0,0.5,0],[0,0.75,0],[1,0.25,0],[1,0.5,0],[1,0.75,0]];outlineConnect=0;fontColor=#232F3E;gradientColor=#945DF2;gradientDirection=north;fillColor=#5A30B5;strokeColor=#ffffff;dashed=0;verticalLabelPosition=bottom;verticalAlign=top;align=center;html=1;fontSize=12;fontStyle=1;aspect=fixed;shape=mxgraph.aws4.resourceIcon;resIcon=mxgraph.aws4.api_gateway;" parent="1" vertex="1">
          <mxGeometry x="280" y="760" width="78" height="78" as="geometry" />
        </mxCell>
        <mxCell id="TkcpjnZqFe34bucZmvmq-21" style="edgeStyle=orthogonalEdgeStyle;rounded=0;orthogonalLoop=1;jettySize=auto;html=1;exitX=1;exitY=0.5;exitDx=0;exitDy=0;exitPerimeter=0;entryX=0;entryY=0.5;entryDx=0;entryDy=0;entryPerimeter=0;" parent="1" source="TkcpjnZqFe34bucZmvmq-11" target="TkcpjnZqFe34bucZmvmq-10" edge="1">
          <mxGeometry relative="1" as="geometry" />
        </mxCell>
        <mxCell id="TkcpjnZqFe34bucZmvmq-11" value="Sytac web portal" style="sketch=0;points=[[0,0,0],[0.25,0,0],[0.5,0,0],[0.75,0,0],[1,0,0],[0,1,0],[0.25,1,0],[0.5,1,0],[0.75,1,0],[1,1,0],[0,0.25,0],[0,0.5,0],[0,0.75,0],[1,0.25,0],[1,0.5,0],[1,0.75,0]];outlineConnect=0;fontColor=#232F3E;gradientColor=#F54749;gradientDirection=north;fillColor=#C7131F;strokeColor=#ffffff;dashed=0;verticalLabelPosition=bottom;verticalAlign=top;align=center;html=1;fontSize=12;fontStyle=1;aspect=fixed;shape=mxgraph.aws4.resourceIcon;resIcon=mxgraph.aws4.mobile;" parent="1" vertex="1">
          <mxGeometry x="40" y="760" width="78" height="78" as="geometry" />
        </mxCell>
        <mxCell id="TkcpjnZqFe34bucZmvmq-18" style="edgeStyle=orthogonalEdgeStyle;rounded=0;orthogonalLoop=1;jettySize=auto;html=1;entryX=0.75;entryY=0;entryDx=0;entryDy=0;entryPerimeter=0;exitX=0.75;exitY=1;exitDx=0;exitDy=0;exitPerimeter=0;" parent="1" source="TkcpjnZqFe34bucZmvmq-14" target="TkcpjnZqFe34bucZmvmq-11" edge="1">
          <mxGeometry relative="1" as="geometry" />
        </mxCell>
        <mxCell id="TkcpjnZqFe34bucZmvmq-15" value="1 - authorization code grant type" style="edgeStyle=orthogonalEdgeStyle;rounded=0;orthogonalLoop=1;jettySize=auto;html=1;shadow=0;" parent="1" source="TkcpjnZqFe34bucZmvmq-11" target="TkcpjnZqFe34bucZmvmq-14" edge="1">
          <mxGeometry x="-0.0123" y="-30" relative="1" as="geometry">
            <Array as="points">
              <mxPoint x="60" y="710" />
              <mxPoint x="60" y="710" />
            </Array>
            <mxPoint as="offset" />
          </mxGeometry>
        </mxCell>
        <mxCell id="TkcpjnZqFe34bucZmvmq-14" value="sytac-user-pool" style="sketch=0;points=[[0,0,0],[0.25,0,0],[0.5,0,0],[0.75,0,0],[1,0,0],[0,1,0],[0.25,1,0],[0.5,1,0],[0.75,1,0],[1,1,0],[0,0.25,0],[0,0.5,0],[0,0.75,0],[1,0.25,0],[1,0.5,0],[1,0.75,0]];outlineConnect=0;fontColor=#232F3E;gradientColor=#F54749;gradientDirection=north;fillColor=#C7131F;strokeColor=#ffffff;dashed=0;verticalLabelPosition=top;verticalAlign=bottom;align=center;html=1;fontSize=12;fontStyle=1;aspect=fixed;shape=mxgraph.aws4.resourceIcon;resIcon=mxgraph.aws4.cognito;spacingTop=0;labelPosition=center;" parent="1" vertex="1">
          <mxGeometry x="40" y="520" width="78" height="78" as="geometry" />
        </mxCell>
        <mxCell id="TkcpjnZqFe34bucZmvmq-43" style="edgeStyle=orthogonalEdgeStyle;rounded=0;orthogonalLoop=1;jettySize=auto;html=1;entryX=0.5;entryY=0;entryDx=0;entryDy=0;entryPerimeter=0;" parent="1" source="TkcpjnZqFe34bucZmvmq-22" target="TkcpjnZqFe34bucZmvmq-28" edge="1">
          <mxGeometry relative="1" as="geometry">
            <Array as="points">
              <mxPoint x="799" y="560" />
            </Array>
          </mxGeometry>
        </mxCell>
        <mxCell id="pAqBSU9FgWNd339AWvrt-9" value="4 - Insert the budget item" style="edgeLabel;html=1;align=center;verticalAlign=middle;resizable=0;points=[];" vertex="1" connectable="0" parent="TkcpjnZqFe34bucZmvmq-43">
          <mxGeometry x="-0.4115" y="2" relative="1" as="geometry">
            <mxPoint y="-8" as="offset" />
          </mxGeometry>
        </mxCell>
        <mxCell id="TkcpjnZqFe34bucZmvmq-48" value="&lt;div style=&quot;color: rgb(8, 8, 8); font-family: &amp;quot;JetBrains Mono&amp;quot;, monospace;&quot;&gt;5 - Send event BUDGET_REQUEST_CREATED&lt;/div&gt;" style="edgeStyle=orthogonalEdgeStyle;rounded=0;orthogonalLoop=1;jettySize=auto;html=1;" parent="1" source="TkcpjnZqFe34bucZmvmq-22" target="TkcpjnZqFe34bucZmvmq-47" edge="1">
          <mxGeometry relative="1" as="geometry">
            <mxPoint x="559" y="400" as="targetPoint" />
          </mxGeometry>
        </mxCell>
        <mxCell id="TkcpjnZqFe34bucZmvmq-22" value="create budget" style="sketch=0;points=[[0,0,0],[0.25,0,0],[0.5,0,0],[0.75,0,0],[1,0,0],[0,1,0],[0.25,1,0],[0.5,1,0],[0.75,1,0],[1,1,0],[0,0.25,0],[0,0.5,0],[0,0.75,0],[1,0.25,0],[1,0.5,0],[1,0.75,0]];outlineConnect=0;fontColor=#232F3E;gradientColor=#F78E04;gradientDirection=north;fillColor=#D05C17;strokeColor=#ffffff;dashed=0;verticalLabelPosition=bottom;verticalAlign=top;align=center;html=1;fontSize=12;fontStyle=1;aspect=fixed;shape=mxgraph.aws4.resourceIcon;resIcon=mxgraph.aws4.lambda;labelBorderColor=none;labelBackgroundColor=none;" parent="1" vertex="1">
          <mxGeometry x="520" y="520" width="78" height="78" as="geometry" />
        </mxCell>
        <mxCell id="TkcpjnZqFe34bucZmvmq-44" style="edgeStyle=orthogonalEdgeStyle;rounded=0;orthogonalLoop=1;jettySize=auto;html=1;entryX=0;entryY=0.25;entryDx=0;entryDy=0;entryPerimeter=0;" parent="1" source="TkcpjnZqFe34bucZmvmq-25" target="TkcpjnZqFe34bucZmvmq-28" edge="1">
          <mxGeometry relative="1" as="geometry" />
        </mxCell>
        <mxCell id="TkcpjnZqFe34bucZmvmq-25" value="read budget" style="sketch=0;points=[[0,0,0],[0.25,0,0],[0.5,0,0],[0.75,0,0],[1,0,0],[0,1,0],[0.25,1,0],[0.5,1,0],[0.75,1,0],[1,1,0],[0,0.25,0],[0,0.5,0],[0,0.75,0],[1,0.25,0],[1,0.5,0],[1,0.75,0]];outlineConnect=0;fontColor=#232F3E;gradientColor=#F78E04;gradientDirection=north;fillColor=#D05C17;strokeColor=#ffffff;dashed=0;verticalLabelPosition=bottom;verticalAlign=top;align=center;html=1;fontSize=12;fontStyle=1;aspect=fixed;shape=mxgraph.aws4.resourceIcon;resIcon=mxgraph.aws4.lambda;" parent="1" vertex="1">
          <mxGeometry x="520" y="682" width="78" height="78" as="geometry" />
        </mxCell>
        <mxCell id="TkcpjnZqFe34bucZmvmq-45" style="edgeStyle=orthogonalEdgeStyle;rounded=0;orthogonalLoop=1;jettySize=auto;html=1;entryX=0;entryY=0.75;entryDx=0;entryDy=0;entryPerimeter=0;" parent="1" source="TkcpjnZqFe34bucZmvmq-26" target="TkcpjnZqFe34bucZmvmq-28" edge="1">
          <mxGeometry relative="1" as="geometry" />
        </mxCell>
        <mxCell id="TkcpjnZqFe34bucZmvmq-26" value="read all budgets" style="sketch=0;points=[[0,0,0],[0.25,0,0],[0.5,0,0],[0.75,0,0],[1,0,0],[0,1,0],[0.25,1,0],[0.5,1,0],[0.75,1,0],[1,1,0],[0,0.25,0],[0,0.5,0],[0,0.75,0],[1,0.25,0],[1,0.5,0],[1,0.75,0]];outlineConnect=0;fontColor=#232F3E;gradientColor=#F78E04;gradientDirection=north;fillColor=#D05C17;strokeColor=#ffffff;dashed=0;verticalLabelPosition=bottom;verticalAlign=top;align=center;html=1;fontSize=12;fontStyle=1;aspect=fixed;shape=mxgraph.aws4.resourceIcon;resIcon=mxgraph.aws4.lambda;" parent="1" vertex="1">
          <mxGeometry x="520" y="838" width="78" height="78" as="geometry" />
        </mxCell>
        <mxCell id="TkcpjnZqFe34bucZmvmq-46" style="edgeStyle=orthogonalEdgeStyle;rounded=0;orthogonalLoop=1;jettySize=auto;html=1;entryX=0.5;entryY=1;entryDx=0;entryDy=0;entryPerimeter=0;" parent="1" source="TkcpjnZqFe34bucZmvmq-27" target="TkcpjnZqFe34bucZmvmq-28" edge="1">
          <mxGeometry relative="1" as="geometry" />
        </mxCell>
        <mxCell id="TkcpjnZqFe34bucZmvmq-27" value="delete budget" style="sketch=0;points=[[0,0,0],[0.25,0,0],[0.5,0,0],[0.75,0,0],[1,0,0],[0,1,0],[0.25,1,0],[0.5,1,0],[0.75,1,0],[1,1,0],[0,0.25,0],[0,0.5,0],[0,0.75,0],[1,0.25,0],[1,0.5,0],[1,0.75,0]];outlineConnect=0;fontColor=#232F3E;gradientColor=#F78E04;gradientDirection=north;fillColor=#D05C17;strokeColor=#ffffff;dashed=0;verticalLabelPosition=bottom;verticalAlign=top;align=center;html=1;fontSize=12;fontStyle=1;aspect=fixed;shape=mxgraph.aws4.resourceIcon;resIcon=mxgraph.aws4.lambda;" parent="1" vertex="1">
          <mxGeometry x="520" y="1000" width="78" height="78" as="geometry" />
        </mxCell>
        <mxCell id="TkcpjnZqFe34bucZmvmq-28" value="" style="sketch=0;points=[[0,0,0],[0.25,0,0],[0.5,0,0],[0.75,0,0],[1,0,0],[0,1,0],[0.25,1,0],[0.5,1,0],[0.75,1,0],[1,1,0],[0,0.25,0],[0,0.5,0],[0,0.75,0],[1,0.25,0],[1,0.5,0],[1,0.75,0]];outlineConnect=0;fontColor=#232F3E;gradientColor=#4D72F3;gradientDirection=north;fillColor=#3334B9;strokeColor=#ffffff;dashed=0;verticalLabelPosition=bottom;verticalAlign=top;align=center;html=1;fontSize=12;fontStyle=0;aspect=fixed;shape=mxgraph.aws4.resourceIcon;resIcon=mxgraph.aws4.dynamodb;" parent="1" vertex="1">
          <mxGeometry x="760" y="760" width="78" height="78" as="geometry" />
        </mxCell>
        <mxCell id="TkcpjnZqFe34bucZmvmq-50" style="edgeStyle=orthogonalEdgeStyle;rounded=0;orthogonalLoop=1;jettySize=auto;html=1;dashed=1;" parent="1" source="TkcpjnZqFe34bucZmvmq-47" target="TkcpjnZqFe34bucZmvmq-49" edge="1">
          <mxGeometry relative="1" as="geometry" />
        </mxCell>
        <mxCell id="TkcpjnZqFe34bucZmvmq-47" value="event bus" style="sketch=0;points=[[0,0,0],[0.25,0,0],[0.5,0,0],[0.75,0,0],[1,0,0],[0,1,0],[0.25,1,0],[0.5,1,0],[0.75,1,0],[1,1,0],[0,0.25,0],[0,0.5,0],[0,0.75,0],[1,0.25,0],[1,0.5,0],[1,0.75,0]];outlineConnect=0;fontColor=#232F3E;gradientColor=#FF4F8B;gradientDirection=north;fillColor=#BC1356;strokeColor=#ffffff;dashed=0;verticalLabelPosition=bottom;verticalAlign=top;align=center;html=1;fontSize=12;fontStyle=1;aspect=fixed;shape=mxgraph.aws4.resourceIcon;resIcon=mxgraph.aws4.eventbridge;labelPosition=center;" parent="1" vertex="1">
          <mxGeometry x="520" y="320" width="78" height="78" as="geometry" />
        </mxCell>
        <mxCell id="TkcpjnZqFe34bucZmvmq-53" style="edgeStyle=orthogonalEdgeStyle;rounded=0;orthogonalLoop=1;jettySize=auto;html=1;entryX=0;entryY=0.5;entryDx=0;entryDy=0;entryPerimeter=0;" parent="1" source="TkcpjnZqFe34bucZmvmq-49" target="TkcpjnZqFe34bucZmvmq-51" edge="1">
          <mxGeometry relative="1" as="geometry" />
        </mxCell>
        <mxCell id="TkcpjnZqFe34bucZmvmq-54" value="&lt;div style=&quot;color: rgb(8, 8, 8); font-family: &amp;quot;JetBrains Mono&amp;quot;, monospace;&quot;&gt;3 - PUT budgets/{id}&lt;/div&gt;" style="edgeLabel;html=1;align=center;verticalAlign=middle;resizable=0;points=[];" parent="TkcpjnZqFe34bucZmvmq-53" vertex="1" connectable="0">
          <mxGeometry x="-0.2099" y="-3" relative="1" as="geometry">
            <mxPoint x="17" y="-12" as="offset" />
          </mxGeometry>
        </mxCell>
        <mxCell id="TkcpjnZqFe34bucZmvmq-60" style="edgeStyle=orthogonalEdgeStyle;rounded=0;orthogonalLoop=1;jettySize=auto;html=1;entryX=1;entryY=0.5;entryDx=0;entryDy=0;entryPerimeter=0;" parent="1" source="TkcpjnZqFe34bucZmvmq-49" target="TkcpjnZqFe34bucZmvmq-59" edge="1">
          <mxGeometry relative="1" as="geometry" />
        </mxCell>
        <mxCell id="TkcpjnZqFe34bucZmvmq-61" value="1 - fetch secrets" style="edgeLabel;html=1;align=center;verticalAlign=middle;resizable=0;points=[];" parent="TkcpjnZqFe34bucZmvmq-60" vertex="1" connectable="0">
          <mxGeometry x="0.3704" y="-1" relative="1" as="geometry">
            <mxPoint x="31" y="-8" as="offset" />
          </mxGeometry>
        </mxCell>
        <mxCell id="pAqBSU9FgWNd339AWvrt-7" style="edgeStyle=orthogonalEdgeStyle;rounded=0;orthogonalLoop=1;jettySize=auto;html=1;entryX=0;entryY=0.5;entryDx=0;entryDy=0;entryPerimeter=0;" edge="1" parent="1" target="6clhDQJD2k717qjVbBTH-1">
          <mxGeometry relative="1" as="geometry">
            <mxPoint x="598" y="130" as="sourcePoint" />
            <Array as="points">
              <mxPoint x="598" y="130" />
              <mxPoint x="680" y="130" />
              <mxPoint x="680" y="-39" />
            </Array>
          </mxGeometry>
        </mxCell>
        <mxCell id="pAqBSU9FgWNd339AWvrt-8" value="5 - Send notification" style="edgeLabel;html=1;align=center;verticalAlign=middle;resizable=0;points=[];" vertex="1" connectable="0" parent="pAqBSU9FgWNd339AWvrt-7">
          <mxGeometry x="0.2581" y="1" relative="1" as="geometry">
            <mxPoint x="40" y="-10" as="offset" />
          </mxGeometry>
        </mxCell>
        <mxCell id="TkcpjnZqFe34bucZmvmq-49" value="process budget (finance-app)" style="sketch=0;points=[[0,0,0],[0.25,0,0],[0.5,0,0],[0.75,0,0],[1,0,0],[0,1,0],[0.25,1,0],[0.5,1,0],[0.75,1,0],[1,1,0],[0,0.25,0],[0,0.5,0],[0,0.75,0],[1,0.25,0],[1,0.5,0],[1,0.75,0]];outlineConnect=0;fontColor=#232F3E;gradientColor=#F78E04;gradientDirection=north;fillColor=#D05C17;strokeColor=#ffffff;dashed=0;verticalLabelPosition=bottom;verticalAlign=top;align=center;html=1;fontSize=12;fontStyle=1;aspect=fixed;shape=mxgraph.aws4.resourceIcon;resIcon=mxgraph.aws4.lambda;" parent="1" vertex="1">
          <mxGeometry x="520" y="120" width="78" height="78" as="geometry" />
        </mxCell>
        <mxCell id="TkcpjnZqFe34bucZmvmq-57" style="edgeStyle=orthogonalEdgeStyle;rounded=0;orthogonalLoop=1;jettySize=auto;html=1;" parent="1" source="TkcpjnZqFe34bucZmvmq-51" target="TkcpjnZqFe34bucZmvmq-52" edge="1">
          <mxGeometry relative="1" as="geometry" />
        </mxCell>
        <mxCell id="pAqBSU9FgWNd339AWvrt-11" style="edgeStyle=orthogonalEdgeStyle;rounded=0;orthogonalLoop=1;jettySize=auto;html=1;exitX=0.5;exitY=0;exitDx=0;exitDy=0;exitPerimeter=0;entryX=1;entryY=0.5;entryDx=0;entryDy=0;entryPerimeter=0;" edge="1" parent="1" source="TkcpjnZqFe34bucZmvmq-51" target="pAqBSU9FgWNd339AWvrt-1">
          <mxGeometry relative="1" as="geometry">
            <Array as="points">
              <mxPoint x="877" y="30" />
              <mxPoint x="630" y="30" />
              <mxPoint x="630" y="-39" />
            </Array>
          </mxGeometry>
        </mxCell>
        <mxCell id="pAqBSU9FgWNd339AWvrt-12" value="4- validate access token" style="edgeLabel;html=1;align=center;verticalAlign=middle;resizable=0;points=[];" vertex="1" connectable="0" parent="pAqBSU9FgWNd339AWvrt-11">
          <mxGeometry x="0.0046" y="-2" relative="1" as="geometry">
            <mxPoint x="13" y="-8" as="offset" />
          </mxGeometry>
        </mxCell>
        <mxCell id="TkcpjnZqFe34bucZmvmq-51" value="budgets-api" style="sketch=0;points=[[0,0,0],[0.25,0,0],[0.5,0,0],[0.75,0,0],[1,0,0],[0,1,0],[0.25,1,0],[0.5,1,0],[0.75,1,0],[1,1,0],[0,0.25,0],[0,0.5,0],[0,0.75,0],[1,0.25,0],[1,0.5,0],[1,0.75,0]];outlineConnect=0;fontColor=#232F3E;gradientColor=#945DF2;gradientDirection=north;fillColor=#5A30B5;strokeColor=#ffffff;dashed=0;verticalLabelPosition=bottom;verticalAlign=top;align=center;html=1;fontSize=12;fontStyle=1;aspect=fixed;shape=mxgraph.aws4.resourceIcon;resIcon=mxgraph.aws4.api_gateway;" parent="1" vertex="1">
          <mxGeometry x="838" y="120" width="78" height="78" as="geometry" />
        </mxCell>
        <mxCell id="TkcpjnZqFe34bucZmvmq-58" style="edgeStyle=orthogonalEdgeStyle;rounded=0;orthogonalLoop=1;jettySize=auto;html=1;entryX=1;entryY=0.5;entryDx=0;entryDy=0;entryPerimeter=0;" parent="1" source="TkcpjnZqFe34bucZmvmq-52" target="TkcpjnZqFe34bucZmvmq-28" edge="1">
          <mxGeometry relative="1" as="geometry" />
        </mxCell>
        <mxCell id="TkcpjnZqFe34bucZmvmq-52" value="update budget" style="sketch=0;points=[[0,0,0],[0.25,0,0],[0.5,0,0],[0.75,0,0],[1,0,0],[0,1,0],[0.25,1,0],[0.5,1,0],[0.75,1,0],[1,1,0],[0,0.25,0],[0,0.5,0],[0,0.75,0],[1,0.25,0],[1,0.5,0],[1,0.75,0]];outlineConnect=0;fontColor=#232F3E;gradientColor=#F78E04;gradientDirection=north;fillColor=#D05C17;strokeColor=#ffffff;dashed=0;verticalLabelPosition=bottom;verticalAlign=top;align=center;html=1;fontSize=12;fontStyle=1;aspect=fixed;shape=mxgraph.aws4.resourceIcon;resIcon=mxgraph.aws4.lambda;" parent="1" vertex="1">
          <mxGeometry x="838" y="320" width="78" height="78" as="geometry" />
        </mxCell>
        <mxCell id="TkcpjnZqFe34bucZmvmq-59" value="&lt;div style=&quot;background-color: rgb(255, 255, 255); color: rgb(8, 8, 8); font-family: &amp;quot;JetBrains Mono&amp;quot;, monospace;&quot;&gt;finance-app-client-secrets&lt;/div&gt;" style="sketch=0;points=[[0,0,0],[0.25,0,0],[0.5,0,0],[0.75,0,0],[1,0,0],[0,1,0],[0.25,1,0],[0.5,1,0],[0.75,1,0],[1,1,0],[0,0.25,0],[0,0.5,0],[0,0.75,0],[1,0.25,0],[1,0.5,0],[1,0.75,0]];outlineConnect=0;fontColor=#232F3E;gradientColor=#F54749;gradientDirection=north;fillColor=#C7131F;strokeColor=#ffffff;dashed=0;verticalLabelPosition=bottom;verticalAlign=top;align=center;html=1;fontSize=12;fontStyle=1;aspect=fixed;shape=mxgraph.aws4.resourceIcon;resIcon=mxgraph.aws4.secrets_manager;" parent="1" vertex="1">
          <mxGeometry x="280" y="120" width="78" height="78" as="geometry" />
        </mxCell>
        <mxCell id="TkcpjnZqFe34bucZmvmq-23" style="edgeStyle=orthogonalEdgeStyle;rounded=0;orthogonalLoop=1;jettySize=auto;html=1;entryX=1;entryY=0.5;entryDx=0;entryDy=0;entryPerimeter=0;" parent="1" source="TkcpjnZqFe34bucZmvmq-10" target="TkcpjnZqFe34bucZmvmq-14" edge="1">
          <mxGeometry relative="1" as="geometry">
            <mxPoint x="319" y="598" as="targetPoint" />
            <Array as="points">
              <mxPoint x="319" y="559" />
            </Array>
          </mxGeometry>
        </mxCell>
        <mxCell id="TkcpjnZqFe34bucZmvmq-24" value="2 - validate access token" style="edgeLabel;html=1;align=center;verticalAlign=middle;resizable=0;points=[];" parent="TkcpjnZqFe34bucZmvmq-23" vertex="1" connectable="0">
          <mxGeometry relative="1" as="geometry">
            <mxPoint x="-29" y="-9" as="offset" />
          </mxGeometry>
        </mxCell>
        <mxCell id="6clhDQJD2k717qjVbBTH-11" style="edgeStyle=orthogonalEdgeStyle;rounded=0;orthogonalLoop=1;jettySize=auto;html=1;" parent="1" source="6clhDQJD2k717qjVbBTH-1" target="6clhDQJD2k717qjVbBTH-10" edge="1">
          <mxGeometry relative="1" as="geometry" />
        </mxCell>
        <mxCell id="6clhDQJD2k717qjVbBTH-12" value="6 - Send email" style="edgeLabel;html=1;align=center;verticalAlign=middle;resizable=0;points=[];" parent="6clhDQJD2k717qjVbBTH-11" vertex="1" connectable="0">
          <mxGeometry x="-0.1584" y="-1" relative="1" as="geometry">
            <mxPoint y="-12" as="offset" />
          </mxGeometry>
        </mxCell>
        <mxCell id="6clhDQJD2k717qjVbBTH-1" value="" style="sketch=0;points=[[0,0,0],[0.25,0,0],[0.5,0,0],[0.75,0,0],[1,0,0],[0,1,0],[0.25,1,0],[0.5,1,0],[0.75,1,0],[1,1,0],[0,0.25,0],[0,0.5,0],[0,0.75,0],[1,0.25,0],[1,0.5,0],[1,0.75,0]];outlineConnect=0;fontColor=#232F3E;gradientColor=#FF4F8B;gradientDirection=north;fillColor=#BC1356;strokeColor=#ffffff;dashed=0;verticalLabelPosition=bottom;verticalAlign=top;align=center;html=1;fontSize=12;fontStyle=0;aspect=fixed;shape=mxgraph.aws4.resourceIcon;resIcon=mxgraph.aws4.sns;" parent="1" vertex="1">
          <mxGeometry x="838" y="-78" width="78" height="78" as="geometry" />
        </mxCell>
        <mxCell id="6clhDQJD2k717qjVbBTH-10" value="" style="outlineConnect=0;dashed=0;verticalLabelPosition=bottom;verticalAlign=top;align=center;html=1;shape=mxgraph.aws3.user;fillColor=#D2D3D3;gradientColor=none;" parent="1" vertex="1">
          <mxGeometry x="1080" y="-78" width="50" height="78" as="geometry" />
        </mxCell>
        <mxCell id="pAqBSU9FgWNd339AWvrt-1" value="sytac-user-pool" style="sketch=0;points=[[0,0,0],[0.25,0,0],[0.5,0,0],[0.75,0,0],[1,0,0],[0,1,0],[0.25,1,0],[0.5,1,0],[0.75,1,0],[1,1,0],[0,0.25,0],[0,0.5,0],[0,0.75,0],[1,0.25,0],[1,0.5,0],[1,0.75,0]];outlineConnect=0;fontColor=#232F3E;gradientColor=#F54749;gradientDirection=north;fillColor=#C7131F;strokeColor=#ffffff;dashed=0;verticalLabelPosition=top;verticalAlign=bottom;align=center;html=1;fontSize=12;fontStyle=1;aspect=fixed;shape=mxgraph.aws4.resourceIcon;resIcon=mxgraph.aws4.cognito;spacingTop=0;labelPosition=center;" vertex="1" parent="1">
          <mxGeometry x="520" y="-78" width="78" height="78" as="geometry" />
        </mxCell>
        <mxCell id="pAqBSU9FgWNd339AWvrt-5" style="edgeStyle=orthogonalEdgeStyle;rounded=0;orthogonalLoop=1;jettySize=auto;html=1;exitX=0.75;exitY=1;exitDx=0;exitDy=0;exitPerimeter=0;" edge="1" parent="1">
          <mxGeometry relative="1" as="geometry">
            <mxPoint x="578" as="sourcePoint" />
            <mxPoint x="578" y="120" as="targetPoint" />
          </mxGeometry>
        </mxCell>
        <mxCell id="pAqBSU9FgWNd339AWvrt-4" value="2 - client credentials grant type" style="edgeStyle=orthogonalEdgeStyle;rounded=0;orthogonalLoop=1;jettySize=auto;html=1;shadow=0;" edge="1" parent="1">
          <mxGeometry x="0.0083" y="-41" relative="1" as="geometry">
            <Array as="points">
              <mxPoint x="539" y="112" />
              <mxPoint x="539" y="112" />
            </Array>
            <mxPoint x="540" y="120" as="sourcePoint" />
            <mxPoint x="539" as="targetPoint" />
            <mxPoint as="offset" />
          </mxGeometry>
        </mxCell>
      </root>
    </mxGraphModel>
  </diagram>
</mxfile>
